<svg xmlns="http://www.w3.org/2000/svg" width="180" height="45" viewBox="0 0 180 45" fill="none"><path d="M155.152 13.0744H153.263C152.636 13.0744 152.128 13.5872 152.128 14.2185V24.8908L140.321 13.718C139.884 13.3054 139.308 13.0755 138.708 13.0755H136.547C135.919 13.0755 135.411 13.5884 135.411 14.2196V29.4278C135.411 30.0601 135.92 30.5719 136.547 30.5719H138.435C139.063 30.5719 139.571 30.059 139.571 29.4278V18.4184L151.673 29.926C152.11 30.3419 152.688 30.573 153.289 30.573H155.151C155.779 30.573 156.287 30.0601 156.287 29.4289V14.2185C156.287 13.5861 155.778 13.0744 155.151 13.0744H155.152Z" fill="#005596"></path><path d="M77.2988 13.0744H75.3922C74.9938 13.0744 74.6279 13.2761 74.4131 13.6132L66.6299 25.8264L58.7583 13.6087C58.5435 13.2739 58.1787 13.0744 57.7826 13.0744H55.7853C55.3557 13.0744 54.9629 13.3111 54.7604 13.6921C54.5579 14.0731 54.5791 14.5341 54.8175 14.8937L64.8172 30.0477C65.0332 30.3757 65.3957 30.5707 65.7862 30.5707H67.3628C67.7544 30.5707 68.1169 30.3746 68.3329 30.0443L78.2689 14.8903C78.505 14.5296 78.5262 14.0697 78.3226 13.6898C78.119 13.31 77.7273 13.0732 77.2988 13.0732V13.0744Z" fill="#005596"></path><path d="M82.2835 13.0744H84.1175C84.7597 13.0744 85.28 13.5996 85.28 14.2455V29.3985C85.28 30.0455 84.7586 30.5696 84.1175 30.5696H82.2824C81.6402 30.5696 81.1199 30.0443 81.1199 29.3985V14.2455C81.1199 13.5985 81.6413 13.0744 82.2824 13.0744H82.2835Z" fill="#005596"></path><path d="M111.64 13.6909C111.436 13.3111 111.044 13.0744 110.616 13.0744H108.709C108.311 13.0744 107.946 13.2761 107.731 13.6132L99.948 25.8264L92.0764 13.6087C91.8616 13.275 91.4968 13.0755 91.1007 13.0755H89.1034C88.6738 13.0755 88.281 13.3122 88.0785 13.6932C87.876 14.0742 87.8972 14.5352 88.1345 14.8948L98.1342 30.0477C98.3502 30.3757 98.7127 30.5707 99.1032 30.5707H100.68C101.071 30.5707 101.434 30.3746 101.65 30.0443L111.585 14.8914C111.821 14.5307 111.842 14.0708 111.638 13.6909H111.64Z" fill="#005596"></path><path d="M122.616 13.6008C122.4 13.2716 122.038 13.0744 121.646 13.0744H120.069C119.679 13.0744 119.318 13.2705 119.1 13.5974L109.101 28.7514C108.863 29.1121 108.841 29.572 109.044 29.953C109.246 30.334 109.639 30.5707 110.069 30.5707H111.996C112.391 30.5707 112.756 30.3712 112.971 30.0387L114.87 27.1001H126.763L128.626 30.0319C128.841 30.3701 129.207 30.5719 129.605 30.5719H131.58C132.008 30.5719 132.401 30.3352 132.604 29.9553C132.806 29.5754 132.786 29.1144 132.55 28.7548L122.614 13.6019L122.616 13.6008ZM117.096 23.6543L120.866 17.8187L124.574 23.6543H117.096Z" fill="#005596"></path><path d="M178.835 13.0744H160.161C159.519 13.0744 158.999 13.5985 158.999 14.2455V15.5396C158.999 16.1189 159.465 16.5901 160.042 16.5901H167.535V29.3996C167.535 30.0466 168.055 30.5707 168.698 30.5707H170.533C171.175 30.5707 171.695 30.0466 171.695 29.3996V16.5901H178.957C179.532 16.5901 180 16.1201 180 15.5396V14.2455C180 13.5985 179.48 13.0744 178.837 13.0744H178.835Z" fill="#005596"></path><path d="M23.7095 28.8856H25.5266C25.9787 28.8856 26.396 28.659 26.6456 28.2791L38.0999 10.8098C38.3718 10.3939 38.3964 9.8641 38.1615 9.42562C37.9276 8.98714 37.4745 8.71436 36.981 8.71436H15.4228L15.4027 8.79664C15.1364 9.90242 15.5481 11.0623 16.4488 11.7476L18.1183 13.018H31.3081L24.6819 23.4153L18.4394 13.7721L16.4466 12.7069C15.2762 12.0813 13.8306 12.3563 12.9679 13.3697L12.8672 13.488L22.5928 28.2836C22.8424 28.6613 23.2597 28.8867 23.7095 28.8867V28.8856Z" fill="#F27921"></path><path d="M54.4629 0.711262C54.229 0.272782 53.7759 0 53.2824 0H6.49596C6.0014 0 5.54824 0.272782 5.31438 0.712389C5.08053 1.152 5.10515 1.68291 5.37928 2.09772L9.50809 8.37846L11.7057 9.23513C12.8593 9.68489 14.165 9.32756 14.936 8.36043L12.3087 4.30251H47.5636L24.6818 39.5308L7.19864 13.018H12.2472C12.5258 11.8299 12.0223 10.5788 10.9716 9.92949L9.00794 8.71437H1.3411C0.846542 8.71437 0.393379 8.98715 0.159525 9.42676C-0.0743288 9.86636 -0.0497126 10.3973 0.224423 10.8121L22.5927 44.3969C22.8423 44.7746 23.2596 45 23.7094 45H25.5265C25.9786 45 26.3959 44.7734 26.6455 44.3936L54.4014 2.09546C54.6733 1.67953 54.6979 1.14974 54.4629 0.711262Z" fill="#F27921"></path><path d="M12.2473 13.018H12.5583L12.8672 13.4869L12.9679 13.3686C13.8317 12.3552 15.2762 12.0802 16.4466 12.7058L18.4394 13.771L17.9515 13.0169H18.1183L16.4488 11.7465C15.5481 11.0612 15.1363 9.90132 15.4026 8.79554L15.4228 8.71325H15.1677L14.9383 8.35931C14.1662 9.32645 12.8605 9.68377 11.708 9.23402L9.51041 8.37735L9.73196 8.71325H9.01025L10.974 9.92837C12.0246 10.5776 12.5281 11.8288 12.2495 13.0169L12.2473 13.018Z" fill="white"></path></svg>